<svg class="mx-auto" width="46" height="46" viewBox="0 0 46 46" fill="none" xmlns="http://www.w3.org/2000/svg">
                            <path d="M7.66682 28.7502V13.4168C7.66682 9.802 7.66682 7.9965 8.78999 6.87333C9.91315 5.75016 11.7187 5.75016 15.3335 5.75016H21.0835M38.3335 28.7502V27.7918M34.5002 17.2502H34.5174M34.5002 3.8335C38.115 3.8335 39.9205 3.8335 41.0437 4.95666C42.1668 6.07983 42.1668 7.88533 42.1668 11.5002V15.3335C42.1668 18.9483 42.1668 20.7538 41.0437 21.877C39.9205 23.0002 38.115 23.0002 34.5002 23.0002C30.8853 23.0002 29.0798 23.0002 27.9567 21.877C26.8335 20.7538 26.8335 18.9483 26.8335 15.3335V11.5002C26.8335 7.88533 26.8335 6.07983 27.9567 4.95666C29.0798 3.8335 30.8853 3.8335 34.5002 3.8335ZM6.70465 30.6956L7.70515 28.7502H38.2415L39.2957 30.6956C42.0614 35.7977 42.7514 38.3488 41.6992 40.2578C40.6469 42.1668 37.862 42.1668 32.2883 42.1668H13.712C8.1364 42.1668 5.34957 42.1668 4.29924 40.2578C3.24699 38.3488 3.93699 35.7977 6.70465 30.6956Z" stroke="currentColor" stroke-width="2.3" stroke-linecap="round" stroke-linejoin="round"></path>
                        </svg>