<svg class="ltrReverse flex-shrink-0" width="19" height="19" viewBox="0 0 19 19" fill="none" xmlns="http://www.w3.org/2000/svg">
                            <path fill-rule="evenodd" clip-rule="evenodd" d="M8.19858 5.35039C8.09448 5.24433 7.95254 5.18392 7.80393 5.18244C7.65533 5.18096 7.51221 5.23853 7.40602 5.3425L3.63031 9.04379C3.52425 9.14789 3.46384 9.28984 3.46236 9.43844C3.46088 9.58705 3.51845 9.73017 3.62242 9.83636L7.32371 13.6121C7.3745 13.6677 7.43597 13.7125 7.50446 13.7438C7.57294 13.7752 7.64703 13.7924 7.72231 13.7944C7.7976 13.7965 7.87253 13.7834 7.94263 13.7559C8.01274 13.7284 8.07659 13.6871 8.13037 13.6343C8.18415 13.5816 8.22676 13.5186 8.25566 13.4491C8.28456 13.3795 8.29915 13.3049 8.29857 13.2295C8.298 13.1542 8.28225 13.0798 8.25229 13.0107C8.22232 12.9416 8.17875 12.8793 8.12416 12.8274L4.81521 9.45191L8.19069 6.14295C8.29676 6.03885 8.35716 5.89691 8.35864 5.7483C8.36012 5.5997 8.30255 5.45658 8.19858 5.35039Z" fill="white"></path>
                            <path opacity="0.5" d="M11.5053 8.9577C12.2178 8.96479 13.273 9.18467 14.1608 9.83734C15.0776 10.512 15.7785 11.6219 15.7618 13.2998C15.7603 13.4485 15.6998 13.5905 15.5936 13.6947C15.4874 13.7988 15.3441 13.8564 15.1954 13.855C15.0467 13.8535 14.9046 13.793 14.8005 13.6868C14.6964 13.5806 14.6387 13.4373 14.6402 13.2886C14.6533 11.9756 14.1263 11.2047 13.4968 10.7415C12.8383 10.2571 12.0272 10.0846 11.4941 10.0792L5.37045 10.0183L4.81525 9.45194L5.38161 8.89675L11.5053 8.9577Z" fill="white"></path>
                        </svg>