<svg class="flex-shrink-0 relative" width="30" height="30" viewBox="0 0 30 30" fill="none" xmlns="http://www.w3.org/2000/svg">
                            <path d="M26.2475 16.25C26.2492 15.6625 26.25 15.0375 26.25 14.375C26.25 8.7775 26.25 5.9775 24.5112 4.23875C22.7725 2.5 19.9738 2.5 14.375 2.5C8.7775 2.5 5.9775 2.5 4.23875 4.23875C2.5 5.9775 2.5 8.77625 2.5 14.375C2.5 19.9725 2.5 22.7725 4.23875 24.5112C5.9775 26.25 8.77625 26.25 14.375 26.25C15.0375 26.25 15.6625 26.2492 16.25 26.2475" stroke="currentColor" stroke-width="1.5" stroke-linecap="round" stroke-linejoin="round"></path>
                            <path d="M2.5 11.25H26.25M8.125 6.875H8.13625M13.125 6.875H13.1362M23.125 18.75L23.4475 19.6212C23.87 20.7637 24.0812 21.335 24.4975 21.7512C24.915 22.1687 25.4862 22.38 26.6287 22.8025L27.5 23.125L26.6287 23.4475C25.4862 23.87 24.915 24.0812 24.4988 24.4975C24.0813 24.915 23.87 25.4862 23.4475 26.6287L23.125 27.5L22.8025 26.6287C22.38 25.4862 22.1688 24.915 21.7525 24.4988C21.335 24.0813 20.7637 23.87 19.6212 23.4475L18.75 23.125L19.6212 22.8025C20.7637 22.38 21.335 22.1688 21.7512 21.7525C22.1687 21.335 22.38 20.7637 22.8025 19.6212L23.125 18.75Z" stroke="currentColor" stroke-width="1.5" stroke-linecap="round" stroke-linejoin="round"></path>
                        </svg>