<svg class="relative" width="30" height="30" viewBox="0 0 30 30" fill="none" xmlns="http://www.w3.org/2000/svg">
                                <path d="M25.0001 18.75V12.5M5.00012 18.75V8.75C5.00012 6.3925 5.00012 5.215 5.73262 4.4825C6.46512 3.75 7.64262 3.75 10.0001 3.75H14.3751M17.5001 7.5C17.5001 7.5 18.7501 7.5 20.0001 10C20.0001 10 23.9714 3.75 27.5001 2.5M4.37262 20.0187L5.02512 18.75H24.9401L25.6276 20.0187C27.4314 23.3462 27.8814 25.01 27.1951 26.255C26.5089 27.5 24.6926 27.5 21.0576 27.5H8.94262C5.30637 27.5 3.48887 27.5 2.80387 26.255C2.11762 25.01 2.56762 23.3462 4.37262 20.0187Z" stroke="currentColor" stroke-width="1.5" stroke-linecap="round" stroke-linejoin="round"></path>
                            </svg>