<svg class="relative" width="31" height="30" viewBox="0 0 31 30" fill="none" xmlns="http://www.w3.org/2000/svg">
                            <path d="M19.4412 5.35499C17.9737 4.80999 17.3225 2.62999 15.65 2.50499C15.5501 2.49899 15.4499 2.49899 15.35 2.50499C13.6787 2.62999 13.0275 4.80999 11.56 5.35499C10.0062 5.93124 7.88122 4.74999 6.56622 6.06499C5.29997 7.33124 6.41997 9.53749 5.85497 11.0587C5.27872 12.615 2.86372 13.2587 3.00497 15.15C3.13122 16.8212 5.31122 17.4737 5.85497 18.9412C6.41997 20.4625 5.29997 22.6687 6.56622 23.935C7.88122 25.25 10.0062 24.0687 11.56 24.645C13.0262 25.19 13.6787 27.37 15.3512 27.495C15.4512 27.5025 15.5508 27.5025 15.65 27.495C17.3225 27.37 17.975 25.19 19.4412 24.645C20.9625 24.0812 23.1687 25.2012 24.435 23.935C25.7937 22.5762 24.485 20.3725 25.2025 18.8025C25.865 17.3575 28.1325 16.68 27.995 14.8512C27.87 13.1787 25.6912 12.5262 25.145 11.0587C24.57 9.50499 25.75 7.38124 24.435 6.06499C23.12 4.74874 20.995 5.93124 19.4412 5.35499Z" stroke="currentColor" stroke-width="1.5" stroke-linecap="round" stroke-linejoin="round"></path>
                            <path d="M15.8022 20V15C15.8022 14.4113 15.8022 14.1162 15.6197 13.9325C15.436 13.75 15.1422 13.75 14.5522 13.75M15.4897 10H15.5022" stroke="currentColor" stroke-width="1.5" stroke-linecap="round" stroke-linejoin="round"></path>
                        </svg>