<svg width="48" height="48" viewBox="0 0 48 48" fill="none" xmlns="http://www.w3.org/2000/svg">
                <path opacity="0.4" d="M44 31.8804C44 37.4604 39.52 41.9804 33.94 42.0004H33.92H14.1C8.54 42.0004 4 37.5004 4 31.9204V31.9004C4 31.9004 4.012 23.0484 4.028 18.5964C4.03 17.7604 4.99 17.2924 5.644 17.8124C10.396 21.5824 18.894 28.4564 19 28.5464C20.42 29.6844 22.22 30.3264 24.06 30.3264C25.9 30.3264 27.7 29.6844 29.12 28.5244C29.226 28.4544 37.534 21.7864 42.358 17.9544C43.014 17.4324 43.978 17.9004 43.98 18.7344C44 23.1524 44 31.8804 44 31.8804Z" fill="currentColor"></path>
                <path d="M42.9518 11.3471C41.2198 8.08315 37.8118 5.99915 34.0598 5.99915H14.0998C10.3478 5.99915 6.93977 8.08315 5.20777 11.3471C4.81977 12.0771 5.00377 12.9871 5.64977 13.5031L20.4998 25.3811C21.5398 26.2211 22.7998 26.6391 24.0598 26.6391C24.0678 26.6391 24.0738 26.6391 24.0798 26.6391C24.0858 26.6391 24.0938 26.6391 24.0998 26.6391C25.3598 26.6391 26.6198 26.2211 27.6598 25.3811L42.5098 13.5031C43.1558 12.9871 43.3398 12.0771 42.9518 11.3471Z" fill="currentColor"></path>
              </svg>