<svg class="flex-shrink-0" width="27" height="27" viewBox="0 0 27 27" fill="none" xmlns="http://www.w3.org/2000/svg">
                                        <path d="M2.96533 5.91699L10.4544 10.1691C13.1909 11.7215 14.4064 11.7215 17.1429 10.1691L24.632 5.91699" stroke="currentColor" stroke-width="1.5" stroke-linecap="round" stroke-linejoin="round"></path>
                                        <path d="M12.1736 21.6252C11.6676 21.6185 11.1617 21.6088 10.6558 21.596C7.24439 21.5104 5.53922 21.4681 4.31397 20.2364C3.08872 19.0057 3.05297 17.3439 2.98147 14.0213C2.95865 12.9551 2.95865 11.8885 2.98147 10.8222C3.05297 7.49963 3.08872 5.83888 4.31397 4.60713C5.53922 3.37646 7.24439 3.33421 10.6558 3.24863C12.7506 3.19577 14.8465 3.19577 16.9413 3.24863C20.3527 3.33421 22.0579 3.37646 23.2831 4.60713C24.5084 5.8378 24.5441 7.49963 24.6156 10.8222C24.6254 11.3151 24.6308 11.5459 24.6319 11.8752" stroke="currentColor" stroke-width="1.5" stroke-linecap="round" stroke-linejoin="round"></path>
                                        <path d="M21.3818 18.917C21.3818 19.348 21.2106 19.7613 20.9059 20.066C20.6011 20.3708 20.1878 20.542 19.7568 20.542C19.3259 20.542 18.9125 20.3708 18.6078 20.066C18.303 19.7613 18.1318 19.348 18.1318 18.917C18.1318 18.486 18.303 18.0727 18.6078 17.7679C18.9125 17.4632 19.3259 17.292 19.7568 17.292C20.1878 17.292 20.6011 17.4632 20.9059 17.7679C21.2106 18.0727 21.3818 18.486 21.3818 18.917ZM21.3818 18.917V19.4587C21.3818 19.8896 21.553 20.303 21.8578 20.6077C22.1625 20.9125 22.5759 21.0837 23.0068 21.0837C23.4378 21.0837 23.8511 20.9125 24.1559 20.6077C24.4606 20.303 24.6318 19.8896 24.6318 19.4587V18.917C24.6318 17.9528 24.3459 17.0103 23.8103 16.2086C23.2746 15.4069 22.5132 14.7821 21.6224 14.4131C20.7316 14.0441 19.7514 13.9476 18.8058 14.1357C17.8601 14.3238 16.9915 14.7881 16.3097 15.4698C15.6279 16.1516 15.1636 17.0203 14.9755 17.9659C14.7874 18.9116 14.8839 19.8918 15.2529 20.7826C15.6219 21.6734 16.2467 22.4347 17.0484 22.9704C17.8501 23.5061 18.7927 23.792 19.7568 23.792" stroke="currentColor" stroke-width="1.5" stroke-linecap="round" stroke-linejoin="round"></path>
                                    </svg>