<svg class="flex-shrink-0" width="26" height="26" viewBox="0 0 26 26" fill="none" xmlns="http://www.w3.org/2000/svg">
                                        <path d="M21.1251 17.3333V13.0065C21.1251 11.3967 21.1251 10.5907 20.8478 9.85399C20.5715 9.11732 20.0407 8.51066 18.9812 7.29949L17.3334 5.41666H8.66677L7.02011 7.29949C5.95844 8.51066 5.42761 9.11732 5.15136 9.85399C4.87511 10.5907 4.87402 11.3967 4.87402 13.0065V17.3333C4.87402 20.397 4.87402 21.9299 5.82627 22.8811C6.77852 23.8322 8.31144 23.8333 11.3751 23.8333H14.6251C17.6888 23.8333 19.2217 23.8333 20.1729 22.8811C21.1251 21.9299 21.1251 20.397 21.1251 17.3333Z" stroke="currentColor" stroke-width="1.50306" stroke-linecap="round" stroke-linejoin="round"></path>
                                        <path d="M10.2917 16.9899C10.2917 18.3224 12.3002 19.4133 14.2274 18.8012C16.1547 18.1892 15.8708 16.3854 15.2165 15.6769C14.5622 14.9684 13.6013 15.0876 12.5017 15.0312C10.0306 14.9056 9.85617 12.5363 11.8571 11.5992C13.325 10.9113 15.2078 11.7942 15.4245 13M12.9686 10.2917V11.3512M12.9686 19.1967V20.0417M8.125 2.16666H17.875C18.3798 2.16666 18.6322 2.16666 18.8316 2.24899C19.0965 2.35917 19.3069 2.56995 19.4166 2.83507C19.5 3.03441 19.5 3.28682 19.5 3.79166C19.5 4.29649 19.5 4.54891 19.4177 4.74824C19.3075 5.01316 19.0967 5.22355 18.8316 5.33324C18.6322 5.41666 18.3798 5.41666 17.875 5.41666H8.125C7.62017 5.41666 7.36775 5.41666 7.16842 5.33432C6.9035 5.22414 6.69311 5.01336 6.58342 4.74824C6.5 4.54891 6.5 4.29649 6.5 3.79166C6.5 3.28682 6.5 3.03441 6.58233 2.83507C6.69252 2.57016 6.9033 2.35977 7.16842 2.25007C7.36775 2.16666 7.62017 2.16666 8.125 2.16666Z" stroke="currentColor" stroke-width="1.50306" stroke-linecap="round" stroke-linejoin="round"></path>
                                    </svg>