<svg width="56" height="56" viewBox="0 0 56 56" fill="none" xmlns="http://www.w3.org/2000/svg">
                            <path d="M28.0046 21.0024C25.4262 21.0024 23.3379 22.5704 23.3379 24.5024C23.3379 26.4344 25.4262 28.0024 28.0046 28.0024C30.5829 28.0024 32.6712 29.5704 32.6712 31.5024C32.6712 33.4344 30.5806 35.0024 28.0046 35.0024M28.0046 21.0024C30.0346 21.0024 31.7659 21.9754 32.4052 23.3357M28.0046 21.0024V18.6691M28.0046 35.0024C25.9746 35.0024 24.2432 34.0294 23.6039 32.6691M28.0046 35.0024V37.3357" stroke="currentColor" stroke-width="1.5" stroke-linecap="round" stroke-linejoin="round"></path>
                            <path d="M31.4999 5.83572H27.9999C17.5513 5.83572 12.3246 5.83572 9.07892 9.08139C5.83325 12.3271 5.83325 17.5514 5.83325 28.0024C5.83325 38.4511 5.83325 43.6754 9.07892 46.9234C12.3246 50.1667 17.5489 50.1667 27.9999 50.1667C38.4486 50.1667 43.6752 50.1667 46.9209 46.9211C50.1666 43.6754 50.1666 38.4534 50.1666 28.0001V24.5001M38.4999 17.4977L48.2439 7.74905M50.1666 16.2797L49.8913 9.06739C49.8913 7.36639 48.8762 6.30705 47.0259 6.17405L39.7366 5.83105" stroke="currentColor" stroke-width="1.5" stroke-linecap="round" stroke-linejoin="round"></path>
                        </svg>