<svg width="30" height="31" viewBox="0 0 30 31" fill="none" xmlns="http://www.w3.org/2000/svg">
                        <path d="M14.9812 19.76L19.0337 24.3675C20.5337 26.0737 21.2849 26.9275 22.0712 26.7187C22.8562 26.5112 23.1262 25.3887 23.6649 23.1425L26.6524 10.6825C27.4837 7.22249 27.8987 5.49374 26.9762 4.63999C26.0537 3.78624 24.4549 4.42124 21.2574 5.68999L6.42492 11.5812C3.86742 12.5975 2.58867 13.105 2.50742 13.9775C2.49785 14.0664 2.49785 14.1561 2.50742 14.245C2.58617 15.1187 3.86242 15.63 6.41742 16.6537C7.57367 17.1175 8.15242 17.35 8.56742 17.7937C8.61409 17.8437 8.65909 17.8954 8.70242 17.9487C9.08492 18.4237 9.24742 19.0487 9.57367 20.2937L10.1849 22.6275C10.5012 23.84 10.6599 24.4475 11.0762 24.53C11.4924 24.6125 11.8537 24.11 12.5774 23.1037L14.9812 19.76ZM14.9812 19.76L14.5849 19.3475C14.1324 18.875 13.9062 18.64 13.9062 18.3475C13.9062 18.055 14.1312 17.8187 14.5849 17.3475L19.0512 12.6925" stroke="#110E2D" stroke-width="1.5" stroke-linecap="round" stroke-linejoin="round"></path>
                    </svg>